# xmcd
# Track frame offsets:
# 150
# 19285
# 35798
# 50070
# 65100
# 80433
# 97333
# 114855
# 131450
# 146705
#
# Disc length: 2132 seconds
# Revision: 2
# Processed by: cddbd v1.4PL0 Copyright (c) Steve Scherf et al.
# Submitted via: VisiTrax 2.9.5.181 - For more info visit www.synapsa.com
#
DISCID=9608520a
DTITLE=Various Artist - Country Love Songs, volume 2
DYEAR=1900
DGENRE=Country
TTITLE0=Carlene Carter - The Sweetest Thing
TTITLE1=Randy Travis - I Told You So
TTITLE2=Dan Seals - Mason Dixon Line
TTITLE3=The Forester Sisters - (I'd choose) You Again
TTITLE4=John Anderson - Down In Tennessee
TTITLE5=Little Texas - You And Forever Me
TTITLE6=Emmylou Harris - Together Again
TTITLE7=Kenny Rogers - Bed Of Roses
TTITLE8=Michael White - The River And The Rain
TTITLE9=Hoplly Dunn - (It's Always Gonna Be) Someday
EXTD=ID3G:   2
EXTT0=
EXTT1=
EXTT2=
EXTT3=
EXTT4=
EXTT5=
EXTT6=
EXTT7=
EXTT8=
EXTT9=
PLAYORDER=
